<?xml version="1.0" standalone="no"?><!DOCTYPE svg PUBLIC "-//W3C//DTD SVG 1.1//EN" "http://www.w3.org/Graphics/SVG/1.1/DTD/svg11.dtd"><svg class="icon" width="200px" height="200.00px" viewBox="0 0 1024 1024" version="1.1" xmlns="http://www.w3.org/2000/svg"><path d="M821.333333 951.466667l-85.333333-85.333334 44.8-44.8 85.333333 85.333334c12.8 12.8 12.8 32 0 44.8-10.666667 10.666667-32 10.666667-44.8 0zM202.666667 951.466667l85.333333-85.333334-44.8-44.8-85.333333 85.333334c-12.8 12.8-12.8 32 0 44.8 10.666667 10.666667 32 10.666667 44.8 0z" fill="#37474F" /><path d="M512 512m-426.666667 0a426.666667 426.666667 0 1 0 853.333334 0 426.666667 426.666667 0 1 0-853.333334 0Z" fill="#C62828" /><path d="M512 512m-341.333333 0a341.333333 341.333333 0 1 0 682.666666 0 341.333333 341.333333 0 1 0-682.666666 0Z" fill="#EEEEEE" /><path d="M322.048 714.24l-12.074667-12.074667 196.074667-196.074666 12.074667 12.053333z" fill="#E53935" /><path d="M490.666667 234.666667h42.666666v277.333333h-42.666666z"  /><path d="M667.413333 632.618667L632.746667 667.306667l-138.752-138.752 34.688-34.709334z"  /><path d="M512 512m-42.666667 0a42.666667 42.666667 0 1 0 85.333334 0 42.666667 42.666667 0 1 0-85.333334 0Z"  /><path d="M512 512m-21.333333 0a21.333333 21.333333 0 1 0 42.666666 0 21.333333 21.333333 0 1 0-42.666666 0Z" fill="#C62828" /><path d="M469.333333 21.333333h85.333334v64h-85.333334z" fill="#37474F" /><path d="M947.2 345.6c53.333333-74.666667 44.8-179.2-21.333333-245.333333-66.133333-66.133333-170.666667-74.666667-245.333334-21.333334l266.666667 266.666667zM76.8 345.6c-53.333333-74.666667-44.8-179.2 21.333333-245.333333 66.133333-66.133333 170.666667-74.666667 245.333334-21.333334L76.8 345.6z" fill="#37474F" /></svg>